# xmcd
#
# Track frame offsets:
#	150
#	13907
#	28182
#	41206
#	53343
#	64221
#	78252
#	92262
#	104051
#	118059
#	130566
#	144074
#	155713
#	169740
#	184429
#	198379
#	211984
#	225690
#	238517
#	253152
#
# Disc length: 3559 seconds
#
# Revision: 0
# Processed by: cddbd v1.5.2PL0 Copyright (c) Steve Scherf et al.
# Submitted via: audiograbber 1.83.01
#
DISCID=150de514
DTITLE=Various Artist - The Ladies in Blues - CD3
DYEAR=1900
DGENRE=
TTITLE0=Lil Johnson: That Bonus Done Gone Through
TTITLE1=Ida Cox: Death Letter Blues
TTITLE2=Merline Johnson: Pallet On The Floor
TTITLE3=Georgia White: The Blues Ain't Nothin' But?
TTITLE4=Rosetta Howard: How Long Daddy (Will You Keep Me This Way)
TTITLE5=Billie Holiday: Long Gone Blues
TTITLE6=Tiny Mayberry Mailman Blues
TTITLE7=Mildred Bailey: St. Louis Blues
TTITLE8=Billie Holiday: Long Gone Blues
TTITLE9=Memphis Minnie: Me And My Chauffeur Blues
TTITLE10=Lil Green: Why Don't You Do Right?
TTITLE11=Rosetta Tharpe: Trouble In Mind
TTITLE12=Ivie Anderson: Rocks In My Bed
TTITLE13=Wee Bea Booze: Uncle Sam Come And Get Him
TTITLE14=Helen Humes: Gonna Buy Me A Telephone
TTITLE15=Mildred Bailey: Arkansas Blues
TTITLE16=Dinah Washington: Salty Papa Blues
TTITLE17=Savannah Churchill: Hurry, Hurry!
TTITLE18=June Richmond: 47th Street Jive
TTITLE19=Sister Rosetta Tharpe: Trouble In Mind
EXTD=
EXTT0=
EXTT1=
EXTT2=
EXTT3=
EXTT4=
EXTT5=
EXTT6=
EXTT7=
EXTT8=
EXTT9=
EXTT10=
EXTT11=
EXTT12=
EXTT13=
EXTT14=
EXTT15=
EXTT16=
EXTT17=
EXTT18=
EXTT19=
PLAYORDER=
